<mxfile host="app.diagrams.net" modified="2020-12-25T11:15:12.036Z" agent="5.0 (X11)" etag="mVmYo92fnw9NA2sxcDcg" version="14.1.1" type="github">
  <diagram id="gI8m6C9c187NHEWIORXg" name="Page-1">
    <mxGraphModel dx="1185" dy="1786" grid="1" gridSize="10" guides="1" tooltips="1" connect="1" arrows="1" fold="1" page="1" pageScale="1" pageWidth="827" pageHeight="1169" math="0" shadow="0">
      <root>
        <mxCell id="0" />
        <mxCell id="1" parent="0" />
        <mxCell id="W0wIh-QrFydrwNOZ_83b-1" value="main" style="shape=umlActor;verticalLabelPosition=bottom;verticalAlign=top;html=1;outlineConnect=0;" parent="1" vertex="1">
          <mxGeometry x="40" y="120" width="30" height="60" as="geometry" />
        </mxCell>
        <mxCell id="W0wIh-QrFydrwNOZ_83b-3" value="" style="endArrow=classic;html=1;" parent="1" source="W0wIh-QrFydrwNOZ_83b-2" edge="1">
          <mxGeometry width="50" height="50" relative="1" as="geometry">
            <mxPoint x="390" y="390" as="sourcePoint" />
            <mxPoint x="440" y="340" as="targetPoint" />
          </mxGeometry>
        </mxCell>
        <mxCell id="W0wIh-QrFydrwNOZ_83b-2" value="" style="rounded=0;whiteSpace=wrap;html=1;" parent="1" vertex="1">
          <mxGeometry x="100" y="-400" width="2740" height="1480" as="geometry" />
        </mxCell>
        <mxCell id="W0wIh-QrFydrwNOZ_83b-4" value="" style="endArrow=classic;html=1;exitX=1;exitY=0.3333333333333333;exitDx=0;exitDy=0;exitPerimeter=0;entryX=0.5;entryY=0.988;entryDx=0;entryDy=0;entryPerimeter=0;" parent="1" source="W0wIh-QrFydrwNOZ_83b-1" target="W0wIh-QrFydrwNOZ_83b-8" edge="1">
          <mxGeometry width="50" height="50" relative="1" as="geometry">
            <mxPoint x="390" y="390" as="sourcePoint" />
            <mxPoint x="440" y="340" as="targetPoint" />
          </mxGeometry>
        </mxCell>
        <mxCell id="W0wIh-QrFydrwNOZ_83b-6" value="dataChecker(data)" style="shape=umlBoundary;whiteSpace=wrap;html=1;" parent="1" vertex="1">
          <mxGeometry x="334" y="100" width="160" height="80" as="geometry" />
        </mxCell>
        <mxCell id="W0wIh-QrFydrwNOZ_83b-8" value="Insert Data" style="ellipse;shape=umlControl;whiteSpace=wrap;html=1;direction=south;" parent="1" vertex="1">
          <mxGeometry x="170" y="105" width="80" height="70" as="geometry" />
        </mxCell>
        <mxCell id="W0wIh-QrFydrwNOZ_83b-9" value="" style="endArrow=classic;html=1;exitX=0.557;exitY=0.125;exitDx=0;exitDy=0;exitPerimeter=0;entryX=0.006;entryY=0.513;entryDx=0;entryDy=0;entryPerimeter=0;" parent="1" source="W0wIh-QrFydrwNOZ_83b-8" target="W0wIh-QrFydrwNOZ_83b-6" edge="1">
          <mxGeometry width="50" height="50" relative="1" as="geometry">
            <mxPoint x="330" y="220" as="sourcePoint" />
            <mxPoint x="450.96000000000004" y="220" as="targetPoint" />
          </mxGeometry>
        </mxCell>
        <mxCell id="W0wIh-QrFydrwNOZ_83b-10" value="" style="endArrow=classic;html=1;exitX=1.006;exitY=0.513;exitDx=0;exitDy=0;exitPerimeter=0;entryX=0.514;entryY=1.025;entryDx=0;entryDy=0;entryPerimeter=0;" parent="1" source="W0wIh-QrFydrwNOZ_83b-6" edge="1">
          <mxGeometry width="50" height="50" relative="1" as="geometry">
            <mxPoint x="660" y="170" as="sourcePoint" />
            <mxPoint x="588" y="140.98000000000002" as="targetPoint" />
          </mxGeometry>
        </mxCell>
        <mxCell id="W0wIh-QrFydrwNOZ_83b-12" value="Find Zeros" style="ellipse;shape=umlControl;whiteSpace=wrap;html=1;direction=south;" parent="1" vertex="1">
          <mxGeometry x="590" y="105" width="80" height="70" as="geometry" />
        </mxCell>
        <mxCell id="W0wIh-QrFydrwNOZ_83b-13" value="Dataset" style="shape=umlBoundary;whiteSpace=wrap;html=1;" parent="1" vertex="1">
          <mxGeometry x="1550" y="115" width="160" height="80" as="geometry" />
        </mxCell>
        <mxCell id="W0wIh-QrFydrwNOZ_83b-14" value="" style="endArrow=classic;html=1;exitX=0.606;exitY=1.025;exitDx=0;exitDy=0;exitPerimeter=0;entryX=0.514;entryY=0.1;entryDx=0;entryDy=0;entryPerimeter=0;" parent="1" source="W0wIh-QrFydrwNOZ_83b-6" target="W0wIh-QrFydrwNOZ_83b-15" edge="1">
          <mxGeometry width="50" height="50" relative="1" as="geometry">
            <mxPoint x="488.48" y="210.05999999999997" as="sourcePoint" />
            <mxPoint x="582" y="210" as="targetPoint" />
            <Array as="points">
              <mxPoint x="430" y="286" />
            </Array>
          </mxGeometry>
        </mxCell>
        <mxCell id="W0wIh-QrFydrwNOZ_83b-15" value="Incorrect Data" style="ellipse;shape=umlControl;whiteSpace=wrap;html=1;direction=south;" parent="1" vertex="1">
          <mxGeometry x="290" y="250" width="80" height="70" as="geometry" />
        </mxCell>
        <mxCell id="W0wIh-QrFydrwNOZ_83b-16" value="" style="endArrow=classic;html=1;exitX=0.586;exitY=1.013;exitDx=0;exitDy=0;exitPerimeter=0;entryX=0.986;entryY=0.55;entryDx=0;entryDy=0;entryPerimeter=0;" parent="1" source="W0wIh-QrFydrwNOZ_83b-15" target="W0wIh-QrFydrwNOZ_83b-8" edge="1">
          <mxGeometry width="50" height="50" relative="1" as="geometry">
            <mxPoint x="218.96000000000004" y="270" as="sourcePoint" />
            <mxPoint x="150" y="373.98" as="targetPoint" />
            <Array as="points">
              <mxPoint x="206" y="291" />
            </Array>
          </mxGeometry>
        </mxCell>
        <mxCell id="W0wIh-QrFydrwNOZ_83b-19" value="find_empty_spaces(array)" style="shape=umlBoundary;whiteSpace=wrap;html=1;" parent="1" vertex="1">
          <mxGeometry x="740" y="105" width="160" height="80" as="geometry" />
        </mxCell>
        <mxCell id="W0wIh-QrFydrwNOZ_83b-21" value="" style="endArrow=classic;html=1;exitX=1.013;exitY=0.525;exitDx=0;exitDy=0;exitPerimeter=0;entryX=0.5;entryY=1.013;entryDx=0;entryDy=0;entryPerimeter=0;" parent="1" source="W0wIh-QrFydrwNOZ_83b-19" target="W0wIh-QrFydrwNOZ_83b-22" edge="1">
          <mxGeometry width="50" height="50" relative="1" as="geometry">
            <mxPoint x="1380" y="162.98000000000002" as="sourcePoint" />
            <mxPoint x="1360" y="142" as="targetPoint" />
          </mxGeometry>
        </mxCell>
        <mxCell id="W0wIh-QrFydrwNOZ_83b-22" value="Fill empty spaces" style="ellipse;shape=umlControl;whiteSpace=wrap;html=1;direction=south;" parent="1" vertex="1">
          <mxGeometry x="980" y="110" width="80" height="70" as="geometry" />
        </mxCell>
        <mxCell id="W0wIh-QrFydrwNOZ_83b-23" value="" style="endArrow=classic;html=1;exitX=0.543;exitY=0.15;exitDx=0;exitDy=0;exitPerimeter=0;entryX=0.013;entryY=0.5;entryDx=0;entryDy=0;entryPerimeter=0;" parent="1" source="W0wIh-QrFydrwNOZ_83b-22" target="W0wIh-QrFydrwNOZ_83b-24" edge="1">
          <mxGeometry width="50" height="50" relative="1" as="geometry">
            <mxPoint x="1460" y="149.5" as="sourcePoint" />
            <mxPoint x="1517.92" y="149.5" as="targetPoint" />
          </mxGeometry>
        </mxCell>
        <mxCell id="W0wIh-QrFydrwNOZ_83b-24" value="algorithm(data)" style="shape=umlBoundary;whiteSpace=wrap;html=1;" parent="1" vertex="1">
          <mxGeometry x="1130" y="110" width="160" height="80" as="geometry" />
        </mxCell>
        <mxCell id="W0wIh-QrFydrwNOZ_83b-26" value="" style="endArrow=classic;html=1;exitX=0.586;exitY=0.125;exitDx=0;exitDy=0;exitPerimeter=0;entryX=-0.012;entryY=0.5;entryDx=0;entryDy=0;entryPerimeter=0;" parent="1" source="W0wIh-QrFydrwNOZ_83b-12" target="W0wIh-QrFydrwNOZ_83b-19" edge="1">
          <mxGeometry width="50" height="50" relative="1" as="geometry">
            <mxPoint x="710" y="220.05999999999995" as="sourcePoint" />
            <mxPoint x="803.04" y="220" as="targetPoint" />
          </mxGeometry>
        </mxCell>
        <mxCell id="W0wIh-QrFydrwNOZ_83b-27" value="" style="endArrow=classic;html=1;exitX=1;exitY=0.525;exitDx=0;exitDy=0;exitPerimeter=0;entryX=0.457;entryY=0.975;entryDx=0;entryDy=0;entryPerimeter=0;" parent="1" source="W0wIh-QrFydrwNOZ_83b-24" target="W0wIh-QrFydrwNOZ_83b-28" edge="1">
          <mxGeometry width="50" height="50" relative="1" as="geometry">
            <mxPoint x="1340" y="200.00000000000023" as="sourcePoint" />
            <mxPoint x="1424.08" y="201.99" as="targetPoint" />
          </mxGeometry>
        </mxCell>
        <mxCell id="W0wIh-QrFydrwNOZ_83b-28" value="Compare" style="ellipse;shape=umlControl;whiteSpace=wrap;html=1;direction=south;" parent="1" vertex="1">
          <mxGeometry x="1390" y="120" width="80" height="70" as="geometry" />
        </mxCell>
        <mxCell id="W0wIh-QrFydrwNOZ_83b-29" value="" style="endArrow=classic;html=1;exitX=0.486;exitY=0.113;exitDx=0;exitDy=0;exitPerimeter=0;entryX=-0.019;entryY=0.488;entryDx=0;entryDy=0;entryPerimeter=0;" parent="1" source="W0wIh-QrFydrwNOZ_83b-28" target="W0wIh-QrFydrwNOZ_83b-13" edge="1">
          <mxGeometry width="50" height="50" relative="1" as="geometry">
            <mxPoint x="1480" y="185.01" as="sourcePoint" />
            <mxPoint x="1582" y="184.99999999999977" as="targetPoint" />
          </mxGeometry>
        </mxCell>
        <mxCell id="W0wIh-QrFydrwNOZ_83b-30" value="Check the result" style="ellipse;shape=umlControl;whiteSpace=wrap;html=1;direction=south;" parent="1" vertex="1">
          <mxGeometry x="1800" y="120" width="80" height="70" as="geometry" />
        </mxCell>
        <mxCell id="W0wIh-QrFydrwNOZ_83b-31" value="" style="endArrow=classic;html=1;exitX=1.013;exitY=0.475;exitDx=0;exitDy=0;exitPerimeter=0;entryX=0.471;entryY=1;entryDx=0;entryDy=0;entryPerimeter=0;" parent="1" source="W0wIh-QrFydrwNOZ_83b-13" target="W0wIh-QrFydrwNOZ_83b-30" edge="1">
          <mxGeometry width="50" height="50" relative="1" as="geometry">
            <mxPoint x="1714" y="230" as="sourcePoint" />
            <mxPoint x="1800" y="230.01999999999998" as="targetPoint" />
          </mxGeometry>
        </mxCell>
        <mxCell id="W0wIh-QrFydrwNOZ_83b-32" value="Incorrect" style="endArrow=classic;html=1;exitX=1.029;exitY=0.538;exitDx=0;exitDy=0;exitPerimeter=0;entryX=0.6;entryY=1.013;entryDx=0;entryDy=0;entryPerimeter=0;" parent="1" source="W0wIh-QrFydrwNOZ_83b-30" target="W0wIh-QrFydrwNOZ_83b-24" edge="1">
          <mxGeometry width="50" height="50" relative="1" as="geometry">
            <mxPoint x="1792.08" y="270.03" as="sourcePoint" />
            <mxPoint x="1880" y="269.9999999999998" as="targetPoint" />
            <Array as="points">
              <mxPoint x="1837" y="230" />
              <mxPoint x="1226" y="230" />
            </Array>
          </mxGeometry>
        </mxCell>
        <mxCell id="W0wIh-QrFydrwNOZ_83b-35" value="Correct" style="endArrow=classic;html=1;exitX=0.029;exitY=0.5;exitDx=0;exitDy=0;exitPerimeter=0;entryX=-0.029;entryY=0.575;entryDx=0;entryDy=0;entryPerimeter=0;" parent="1" source="W0wIh-QrFydrwNOZ_83b-30" target="W0wIh-QrFydrwNOZ_83b-12" edge="1">
          <mxGeometry width="50" height="50" relative="1" as="geometry">
            <mxPoint x="1950" y="235" as="sourcePoint" />
            <mxPoint x="2000" y="185" as="targetPoint" />
            <Array as="points">
              <mxPoint x="1840" y="90" />
              <mxPoint x="624" y="90" />
            </Array>
          </mxGeometry>
        </mxCell>
        <mxCell id="W0wIh-QrFydrwNOZ_83b-38" value="" style="endArrow=classic;html=1;exitX=0.55;exitY=1;exitDx=0;exitDy=0;exitPerimeter=0;entryX=0.514;entryY=0.975;entryDx=0;entryDy=0;entryPerimeter=0;" parent="1" source="W0wIh-QrFydrwNOZ_83b-19" target="W0wIh-QrFydrwNOZ_83b-39" edge="1">
          <mxGeometry width="50" height="50" relative="1" as="geometry">
            <mxPoint x="899.9999999999999" y="222" as="sourcePoint" />
            <mxPoint x="977" y="220" as="targetPoint" />
            <Array as="points">
              <mxPoint x="828" y="301" />
            </Array>
          </mxGeometry>
        </mxCell>
        <mxCell id="W0wIh-QrFydrwNOZ_83b-39" value="Display results" style="ellipse;shape=umlControl;whiteSpace=wrap;html=1;direction=south;" parent="1" vertex="1">
          <mxGeometry x="900" y="265" width="80" height="70" as="geometry" />
        </mxCell>
        <mxCell id="W0wIh-QrFydrwNOZ_83b-40" value="print(array)" style="shape=umlBoundary;whiteSpace=wrap;html=1;" parent="1" vertex="1">
          <mxGeometry x="1070" y="260" width="160" height="80" as="geometry" />
        </mxCell>
        <mxCell id="W0wIh-QrFydrwNOZ_83b-42" value="" style="endArrow=classic;html=1;exitX=0.557;exitY=0.113;exitDx=0;exitDy=0;exitPerimeter=0;entryX=0.013;entryY=0.513;entryDx=0;entryDy=0;entryPerimeter=0;" parent="1" source="W0wIh-QrFydrwNOZ_83b-39" target="W0wIh-QrFydrwNOZ_83b-40" edge="1">
          <mxGeometry width="50" height="50" relative="1" as="geometry">
            <mxPoint x="1080" y="400" as="sourcePoint" />
            <mxPoint x="1130" y="350" as="targetPoint" />
          </mxGeometry>
        </mxCell>
        <mxCell id="W0wIh-QrFydrwNOZ_83b-43" value="No Zeros Found" style="text;html=1;strokeColor=none;fillColor=none;align=center;verticalAlign=middle;whiteSpace=wrap;rounded=0;" parent="1" vertex="1">
          <mxGeometry x="780" y="200" width="90" height="20" as="geometry" />
        </mxCell>
        <mxCell id="ZiF1Yd1M9OJEne689u-W-1" value="Constraints" style="shape=umlActor;verticalLabelPosition=bottom;verticalAlign=top;html=1;outlineConnect=0;" parent="1" vertex="1">
          <mxGeometry x="40" y="540" width="30" height="60" as="geometry" />
        </mxCell>
        <mxCell id="ZiF1Yd1M9OJEne689u-W-2" value="" style="endArrow=classic;html=1;exitX=1;exitY=0.3333333333333333;exitDx=0;exitDy=0;exitPerimeter=0;entryX=0.471;entryY=0.975;entryDx=0;entryDy=0;entryPerimeter=0;" parent="1" source="ZiF1Yd1M9OJEne689u-W-1" target="ZiF1Yd1M9OJEne689u-W-3" edge="1">
          <mxGeometry width="50" height="50" relative="1" as="geometry">
            <mxPoint x="140" y="580" as="sourcePoint" />
            <mxPoint x="190" y="530" as="targetPoint" />
          </mxGeometry>
        </mxCell>
        <mxCell id="ZiF1Yd1M9OJEne689u-W-3" value="Insert Data" style="ellipse;shape=umlControl;whiteSpace=wrap;html=1;direction=south;" parent="1" vertex="1">
          <mxGeometry x="180" y="530" width="80" height="70" as="geometry" />
        </mxCell>
        <mxCell id="ZiF1Yd1M9OJEne689u-W-4" value="mainConstraint(main)" style="shape=umlBoundary;whiteSpace=wrap;html=1;" parent="1" vertex="1">
          <mxGeometry x="344" y="525" width="160" height="80" as="geometry" />
        </mxCell>
        <mxCell id="ZiF1Yd1M9OJEne689u-W-5" value="" style="endArrow=classic;html=1;exitX=0.557;exitY=0.138;exitDx=0;exitDy=0;exitPerimeter=0;entryX=-0.012;entryY=0.525;entryDx=0;entryDy=0;entryPerimeter=0;" parent="1" source="ZiF1Yd1M9OJEne689u-W-3" target="ZiF1Yd1M9OJEne689u-W-4" edge="1">
          <mxGeometry width="50" height="50" relative="1" as="geometry">
            <mxPoint x="334" y="482.95" as="sourcePoint" />
            <mxPoint x="428.96000000000004" y="479.99999999999994" as="targetPoint" />
          </mxGeometry>
        </mxCell>
        <mxCell id="ZiF1Yd1M9OJEne689u-W-7" value="Incorrect Data" style="ellipse;shape=umlControl;whiteSpace=wrap;html=1;direction=south;" parent="1" vertex="1">
          <mxGeometry x="580" y="670" width="80" height="70" as="geometry" />
        </mxCell>
        <mxCell id="ZiF1Yd1M9OJEne689u-W-8" value="" style="endArrow=classic;html=1;exitX=0.529;exitY=1;exitDx=0;exitDy=0;exitPerimeter=0;entryX=1.014;entryY=0.575;entryDx=0;entryDy=0;entryPerimeter=0;" parent="1" source="ZiF1Yd1M9OJEne689u-W-7" target="ZiF1Yd1M9OJEne689u-W-3" edge="1">
          <mxGeometry width="50" height="50" relative="1" as="geometry">
            <mxPoint x="242.96000000000004" y="717" as="sourcePoint" />
            <mxPoint x="160" y="600" as="targetPoint" />
            <Array as="points">
              <mxPoint x="214" y="707" />
            </Array>
          </mxGeometry>
        </mxCell>
        <mxCell id="ZiF1Yd1M9OJEne689u-W-10" value="" style="endArrow=classic;html=1;exitX=1.019;exitY=0.538;exitDx=0;exitDy=0;exitPerimeter=0;entryX=0.529;entryY=1.013;entryDx=0;entryDy=0;entryPerimeter=0;" parent="1" source="ZiF1Yd1M9OJEne689u-W-4" target="ZiF1Yd1M9OJEne689u-W-12" edge="1">
          <mxGeometry width="50" height="50" relative="1" as="geometry">
            <mxPoint x="646.8800000000001" y="651.99" as="sourcePoint" />
            <mxPoint x="580.96" y="567.03" as="targetPoint" />
          </mxGeometry>
        </mxCell>
        <mxCell id="ZiF1Yd1M9OJEne689u-W-11" value="checkUniqueRange" style="shape=umlBoundary;whiteSpace=wrap;html=1;" parent="1" vertex="1">
          <mxGeometry x="750" y="525" width="160" height="80" as="geometry" />
        </mxCell>
        <mxCell id="ZiF1Yd1M9OJEne689u-W-12" value="Check values" style="ellipse;shape=umlControl;whiteSpace=wrap;html=1;direction=south;" parent="1" vertex="1">
          <mxGeometry x="580" y="530" width="80" height="70" as="geometry" />
        </mxCell>
        <mxCell id="ZiF1Yd1M9OJEne689u-W-14" value="" style="endArrow=classic;html=1;exitX=0.571;exitY=0.075;exitDx=0;exitDy=0;exitPerimeter=0;entryX=0.006;entryY=0.538;entryDx=0;entryDy=0;entryPerimeter=0;" parent="1" source="ZiF1Yd1M9OJEne689u-W-12" target="ZiF1Yd1M9OJEne689u-W-11" edge="1">
          <mxGeometry width="50" height="50" relative="1" as="geometry">
            <mxPoint x="710" y="530" as="sourcePoint" />
            <mxPoint x="760" y="480" as="targetPoint" />
          </mxGeometry>
        </mxCell>
        <mxCell id="ZiF1Yd1M9OJEne689u-W-15" value="" style="endArrow=classic;html=1;exitX=0.581;exitY=1.038;exitDx=0;exitDy=0;exitPerimeter=0;entryX=0.571;entryY=0.125;entryDx=0;entryDy=0;entryPerimeter=0;" parent="1" source="ZiF1Yd1M9OJEne689u-W-11" target="ZiF1Yd1M9OJEne689u-W-7" edge="1">
          <mxGeometry width="50" height="50" relative="1" as="geometry">
            <mxPoint x="850" y="720" as="sourcePoint" />
            <mxPoint x="900" y="670" as="targetPoint" />
            <Array as="points">
              <mxPoint x="843" y="710" />
            </Array>
          </mxGeometry>
        </mxCell>
        <mxCell id="ZiF1Yd1M9OJEne689u-W-16" value="" style="endArrow=classic;html=1;exitX=1.006;exitY=0.525;exitDx=0;exitDy=0;exitPerimeter=0;entryX=0.586;entryY=1.013;entryDx=0;entryDy=0;entryPerimeter=0;" parent="1" source="ZiF1Yd1M9OJEne689u-W-11" target="ZiF1Yd1M9OJEne689u-W-17" edge="1">
          <mxGeometry width="50" height="50" relative="1" as="geometry">
            <mxPoint x="1030" y="550" as="sourcePoint" />
            <mxPoint x="1080" y="500" as="targetPoint" />
          </mxGeometry>
        </mxCell>
        <mxCell id="ZiF1Yd1M9OJEne689u-W-17" value="Check sudoku" style="ellipse;shape=umlControl;whiteSpace=wrap;html=1;direction=south;" parent="1" vertex="1">
          <mxGeometry x="1055" y="525" width="80" height="70" as="geometry" />
        </mxCell>
        <mxCell id="ZiF1Yd1M9OJEne689u-W-18" value="Actor" style="shape=umlActor;verticalLabelPosition=bottom;verticalAlign=top;html=1;outlineConnect=0;" parent="1" vertex="1">
          <mxGeometry x="40" y="850" width="30" height="60" as="geometry" />
        </mxCell>
        <mxCell id="ZiF1Yd1M9OJEne689u-W-19" value="Open File" style="ellipse;shape=umlControl;whiteSpace=wrap;html=1;direction=south;" parent="1" vertex="1">
          <mxGeometry x="190" y="840" width="80" height="70" as="geometry" />
        </mxCell>
        <mxCell id="ZiF1Yd1M9OJEne689u-W-20" value="" style="endArrow=classic;html=1;exitX=1;exitY=0.3333333333333333;exitDx=0;exitDy=0;exitPerimeter=0;entryX=0.443;entryY=0.988;entryDx=0;entryDy=0;entryPerimeter=0;" parent="1" source="ZiF1Yd1M9OJEne689u-W-18" target="ZiF1Yd1M9OJEne689u-W-19" edge="1">
          <mxGeometry width="50" height="50" relative="1" as="geometry">
            <mxPoint x="270" y="850" as="sourcePoint" />
            <mxPoint x="320" y="800" as="targetPoint" />
          </mxGeometry>
        </mxCell>
        <mxCell id="ZiF1Yd1M9OJEne689u-W-21" value="" style="endArrow=classic;html=1;exitX=0.457;exitY=0.113;exitDx=0;exitDy=0;exitPerimeter=0;entryX=0;entryY=0.488;entryDx=0;entryDy=0;entryPerimeter=0;" parent="1" source="ZiF1Yd1M9OJEne689u-W-19" target="ZiF1Yd1M9OJEne689u-W-23" edge="1">
          <mxGeometry width="50" height="50" relative="1" as="geometry">
            <mxPoint x="380" y="910" as="sourcePoint" />
            <mxPoint x="430" y="860" as="targetPoint" />
          </mxGeometry>
        </mxCell>
        <mxCell id="ZiF1Yd1M9OJEne689u-W-22" value="Change Format" style="ellipse;shape=umlControl;whiteSpace=wrap;html=1;direction=south;" parent="1" vertex="1">
          <mxGeometry x="600" y="835" width="80" height="70" as="geometry" />
        </mxCell>
        <mxCell id="ZiF1Yd1M9OJEne689u-W-23" value="loadData()" style="shape=umlBoundary;whiteSpace=wrap;html=1;" parent="1" vertex="1">
          <mxGeometry x="360" y="830" width="160" height="80" as="geometry" />
        </mxCell>
        <mxCell id="ZiF1Yd1M9OJEne689u-W-24" value="" style="endArrow=classic;html=1;exitX=1;exitY=0.5;exitDx=0;exitDy=0;exitPerimeter=0;entryX=0.529;entryY=0.988;entryDx=0;entryDy=0;entryPerimeter=0;" parent="1" source="ZiF1Yd1M9OJEne689u-W-23" target="ZiF1Yd1M9OJEne689u-W-22" edge="1">
          <mxGeometry width="50" height="50" relative="1" as="geometry">
            <mxPoint x="570" y="955" as="sourcePoint" />
            <mxPoint x="620" y="905" as="targetPoint" />
          </mxGeometry>
        </mxCell>
        <mxCell id="ZiF1Yd1M9OJEne689u-W-25" value="formatChanger()" style="shape=umlBoundary;whiteSpace=wrap;html=1;" parent="1" vertex="1">
          <mxGeometry x="790" y="830" width="160" height="80" as="geometry" />
        </mxCell>
        <mxCell id="ZiF1Yd1M9OJEne689u-W-26" value="" style="endArrow=classic;html=1;exitX=0.529;exitY=0.088;exitDx=0;exitDy=0;exitPerimeter=0;entryX=0.013;entryY=0.525;entryDx=0;entryDy=0;entryPerimeter=0;" parent="1" source="ZiF1Yd1M9OJEne689u-W-22" target="ZiF1Yd1M9OJEne689u-W-25" edge="1">
          <mxGeometry width="50" height="50" relative="1" as="geometry">
            <mxPoint x="740" y="950" as="sourcePoint" />
            <mxPoint x="790" y="900" as="targetPoint" />
          </mxGeometry>
        </mxCell>
        <mxCell id="ZiF1Yd1M9OJEne689u-W-27" value="Pass array" style="ellipse;shape=umlControl;whiteSpace=wrap;html=1;direction=south;" parent="1" vertex="1">
          <mxGeometry x="1070" y="830" width="80" height="70" as="geometry" />
        </mxCell>
        <mxCell id="ZiF1Yd1M9OJEne689u-W-28" value="" style="endArrow=classic;html=1;exitX=1.013;exitY=0.5;exitDx=0;exitDy=0;exitPerimeter=0;entryX=0.543;entryY=0.975;entryDx=0;entryDy=0;entryPerimeter=0;" parent="1" source="ZiF1Yd1M9OJEne689u-W-25" target="ZiF1Yd1M9OJEne689u-W-27" edge="1">
          <mxGeometry width="50" height="50" relative="1" as="geometry">
            <mxPoint x="1040" y="955" as="sourcePoint" />
            <mxPoint x="1090" y="905" as="targetPoint" />
          </mxGeometry>
        </mxCell>
        <mxCell id="ZiF1Yd1M9OJEne689u-W-29" value="" style="endArrow=classic;html=1;exitX=0.529;exitY=0.138;exitDx=0;exitDy=0;exitPerimeter=0;entryX=0;entryY=0.525;entryDx=0;entryDy=0;entryPerimeter=0;" parent="1" source="ZiF1Yd1M9OJEne689u-W-27" target="ZiF1Yd1M9OJEne689u-W-30" edge="1">
          <mxGeometry width="50" height="50" relative="1" as="geometry">
            <mxPoint x="1260" y="920" as="sourcePoint" />
            <mxPoint x="1310" y="870" as="targetPoint" />
          </mxGeometry>
        </mxCell>
        <mxCell id="ZiF1Yd1M9OJEne689u-W-30" value="mainConstraint()" style="shape=umlBoundary;whiteSpace=wrap;html=1;" parent="1" vertex="1">
          <mxGeometry x="1270" y="825" width="160" height="80" as="geometry" />
        </mxCell>
        <mxCell id="K1zx9iukP4_eoGGUbtov-1" value="main" style="shape=umlActor;verticalLabelPosition=bottom;verticalAlign=top;html=1;outlineConnect=0;" parent="1" vertex="1">
          <mxGeometry x="20" y="-230" width="30" height="60" as="geometry" />
        </mxCell>
        <mxCell id="K1zx9iukP4_eoGGUbtov-3" value="" style="endArrow=classic;html=1;exitX=1;exitY=0.3333333333333333;exitDx=0;exitDy=0;exitPerimeter=0;entryX=0.5;entryY=0.988;entryDx=0;entryDy=0;entryPerimeter=0;" parent="1" source="K1zx9iukP4_eoGGUbtov-1" target="K1zx9iukP4_eoGGUbtov-5" edge="1">
          <mxGeometry width="50" height="50" relative="1" as="geometry">
            <mxPoint x="370" y="40" as="sourcePoint" />
            <mxPoint x="420" y="-10" as="targetPoint" />
          </mxGeometry>
        </mxCell>
        <mxCell id="K1zx9iukP4_eoGGUbtov-4" value="dataChecker(data)" style="shape=umlBoundary;whiteSpace=wrap;html=1;" parent="1" vertex="1">
          <mxGeometry x="314" y="-250" width="160" height="80" as="geometry" />
        </mxCell>
        <mxCell id="K1zx9iukP4_eoGGUbtov-5" value="Insert Data" style="ellipse;shape=umlControl;whiteSpace=wrap;html=1;direction=south;" parent="1" vertex="1">
          <mxGeometry x="150" y="-245" width="80" height="70" as="geometry" />
        </mxCell>
        <mxCell id="K1zx9iukP4_eoGGUbtov-6" value="" style="endArrow=classic;html=1;exitX=0.557;exitY=0.125;exitDx=0;exitDy=0;exitPerimeter=0;entryX=0.006;entryY=0.513;entryDx=0;entryDy=0;entryPerimeter=0;" parent="1" source="K1zx9iukP4_eoGGUbtov-5" target="K1zx9iukP4_eoGGUbtov-4" edge="1">
          <mxGeometry width="50" height="50" relative="1" as="geometry">
            <mxPoint x="310" y="-130" as="sourcePoint" />
            <mxPoint x="430.96000000000004" y="-130" as="targetPoint" />
          </mxGeometry>
        </mxCell>
        <mxCell id="K1zx9iukP4_eoGGUbtov-7" value="" style="endArrow=classic;html=1;exitX=1.006;exitY=0.513;exitDx=0;exitDy=0;exitPerimeter=0;entryX=0.514;entryY=1.025;entryDx=0;entryDy=0;entryPerimeter=0;" parent="1" source="K1zx9iukP4_eoGGUbtov-4" edge="1">
          <mxGeometry width="50" height="50" relative="1" as="geometry">
            <mxPoint x="640" y="-180" as="sourcePoint" />
            <mxPoint x="568" y="-209.01999999999998" as="targetPoint" />
          </mxGeometry>
        </mxCell>
        <mxCell id="K1zx9iukP4_eoGGUbtov-8" value="Find Zeros" style="ellipse;shape=umlControl;whiteSpace=wrap;html=1;direction=south;" parent="1" vertex="1">
          <mxGeometry x="570" y="-245" width="80" height="70" as="geometry" />
        </mxCell>
        <mxCell id="K1zx9iukP4_eoGGUbtov-10" value="" style="endArrow=classic;html=1;exitX=0.606;exitY=1.025;exitDx=0;exitDy=0;exitPerimeter=0;entryX=0.514;entryY=0.1;entryDx=0;entryDy=0;entryPerimeter=0;" parent="1" source="K1zx9iukP4_eoGGUbtov-4" target="K1zx9iukP4_eoGGUbtov-11" edge="1">
          <mxGeometry width="50" height="50" relative="1" as="geometry">
            <mxPoint x="468.48" y="-139.94000000000003" as="sourcePoint" />
            <mxPoint x="562" y="-140" as="targetPoint" />
            <Array as="points">
              <mxPoint x="410" y="-64" />
            </Array>
          </mxGeometry>
        </mxCell>
        <mxCell id="K1zx9iukP4_eoGGUbtov-11" value="Incorrect Data" style="ellipse;shape=umlControl;whiteSpace=wrap;html=1;direction=south;" parent="1" vertex="1">
          <mxGeometry x="270" y="-100" width="80" height="70" as="geometry" />
        </mxCell>
        <mxCell id="K1zx9iukP4_eoGGUbtov-12" value="" style="endArrow=classic;html=1;exitX=0.586;exitY=1.013;exitDx=0;exitDy=0;exitPerimeter=0;entryX=0.986;entryY=0.55;entryDx=0;entryDy=0;entryPerimeter=0;" parent="1" source="K1zx9iukP4_eoGGUbtov-11" target="K1zx9iukP4_eoGGUbtov-5" edge="1">
          <mxGeometry width="50" height="50" relative="1" as="geometry">
            <mxPoint x="198.96000000000004" y="-80" as="sourcePoint" />
            <mxPoint x="130" y="23.980000000000018" as="targetPoint" />
            <Array as="points">
              <mxPoint x="186" y="-59" />
            </Array>
          </mxGeometry>
        </mxCell>
        <mxCell id="K1zx9iukP4_eoGGUbtov-13" value="find_empty_spaces(array)" style="shape=umlBoundary;whiteSpace=wrap;html=1;" parent="1" vertex="1">
          <mxGeometry x="720" y="-245" width="160" height="80" as="geometry" />
        </mxCell>
        <mxCell id="K1zx9iukP4_eoGGUbtov-14" value="" style="endArrow=classic;html=1;exitX=1.013;exitY=0.525;exitDx=0;exitDy=0;exitPerimeter=0;entryX=0.5;entryY=1.013;entryDx=0;entryDy=0;entryPerimeter=0;" parent="1" source="K1zx9iukP4_eoGGUbtov-13" target="K1zx9iukP4_eoGGUbtov-15" edge="1">
          <mxGeometry width="50" height="50" relative="1" as="geometry">
            <mxPoint x="1360" y="-187.01999999999998" as="sourcePoint" />
            <mxPoint x="1340" y="-208" as="targetPoint" />
          </mxGeometry>
        </mxCell>
        <mxCell id="K1zx9iukP4_eoGGUbtov-15" value="Fill empty spaces" style="ellipse;shape=umlControl;whiteSpace=wrap;html=1;direction=south;" parent="1" vertex="1">
          <mxGeometry x="960" y="-240" width="80" height="70" as="geometry" />
        </mxCell>
        <mxCell id="K1zx9iukP4_eoGGUbtov-16" value="" style="endArrow=classic;html=1;exitX=0.543;exitY=0.15;exitDx=0;exitDy=0;exitPerimeter=0;entryX=-0.012;entryY=0.5;entryDx=0;entryDy=0;entryPerimeter=0;" parent="1" source="K1zx9iukP4_eoGGUbtov-15" target="K1zx9iukP4_eoGGUbtov-31" edge="1">
          <mxGeometry width="50" height="50" relative="1" as="geometry">
            <mxPoint x="1440" y="-200.5" as="sourcePoint" />
            <mxPoint x="1497.92" y="-200.5" as="targetPoint" />
          </mxGeometry>
        </mxCell>
        <mxCell id="K1zx9iukP4_eoGGUbtov-18" value="" style="endArrow=classic;html=1;exitX=0.586;exitY=0.125;exitDx=0;exitDy=0;exitPerimeter=0;entryX=-0.012;entryY=0.5;entryDx=0;entryDy=0;entryPerimeter=0;" parent="1" source="K1zx9iukP4_eoGGUbtov-8" target="K1zx9iukP4_eoGGUbtov-13" edge="1">
          <mxGeometry width="50" height="50" relative="1" as="geometry">
            <mxPoint x="690" y="-129.94000000000005" as="sourcePoint" />
            <mxPoint x="783.04" y="-130" as="targetPoint" />
          </mxGeometry>
        </mxCell>
        <mxCell id="K1zx9iukP4_eoGGUbtov-26" value="" style="endArrow=classic;html=1;exitX=0.55;exitY=1;exitDx=0;exitDy=0;exitPerimeter=0;entryX=0.514;entryY=0.975;entryDx=0;entryDy=0;entryPerimeter=0;" parent="1" source="K1zx9iukP4_eoGGUbtov-13" target="K1zx9iukP4_eoGGUbtov-27" edge="1">
          <mxGeometry width="50" height="50" relative="1" as="geometry">
            <mxPoint x="879.9999999999999" y="-128" as="sourcePoint" />
            <mxPoint x="957" y="-130" as="targetPoint" />
            <Array as="points">
              <mxPoint x="808" y="-49" />
            </Array>
          </mxGeometry>
        </mxCell>
        <mxCell id="K1zx9iukP4_eoGGUbtov-27" value="Display results" style="ellipse;shape=umlControl;whiteSpace=wrap;html=1;direction=south;" parent="1" vertex="1">
          <mxGeometry x="880" y="-85" width="80" height="70" as="geometry" />
        </mxCell>
        <mxCell id="K1zx9iukP4_eoGGUbtov-28" value="print(array)" style="shape=umlBoundary;whiteSpace=wrap;html=1;" parent="1" vertex="1">
          <mxGeometry x="1050" y="-90" width="160" height="80" as="geometry" />
        </mxCell>
        <mxCell id="K1zx9iukP4_eoGGUbtov-29" value="" style="endArrow=classic;html=1;exitX=0.557;exitY=0.113;exitDx=0;exitDy=0;exitPerimeter=0;entryX=0.013;entryY=0.513;entryDx=0;entryDy=0;entryPerimeter=0;" parent="1" source="K1zx9iukP4_eoGGUbtov-27" target="K1zx9iukP4_eoGGUbtov-28" edge="1">
          <mxGeometry width="50" height="50" relative="1" as="geometry">
            <mxPoint x="1060" y="50" as="sourcePoint" />
            <mxPoint x="1110" as="targetPoint" />
          </mxGeometry>
        </mxCell>
        <mxCell id="K1zx9iukP4_eoGGUbtov-30" value="No Zeros Found" style="text;html=1;strokeColor=none;fillColor=none;align=center;verticalAlign=middle;whiteSpace=wrap;rounded=0;" parent="1" vertex="1">
          <mxGeometry x="760" y="-150" width="90" height="20" as="geometry" />
        </mxCell>
        <mxCell id="K1zx9iukP4_eoGGUbtov-31" value="fillEmptySpace()" style="shape=umlBoundary;whiteSpace=wrap;html=1;" parent="1" vertex="1">
          <mxGeometry x="1130" y="-240" width="160" height="80" as="geometry" />
        </mxCell>
        <mxCell id="K1zx9iukP4_eoGGUbtov-33" value="" style="endArrow=classic;html=1;exitX=1;exitY=0.498;exitDx=0;exitDy=0;exitPerimeter=0;entryX=0.51;entryY=0.99;entryDx=0;entryDy=0;entryPerimeter=0;" parent="1" source="K1zx9iukP4_eoGGUbtov-31" target="K1zx9iukP4_eoGGUbtov-34" edge="1">
          <mxGeometry width="50" height="50" relative="1" as="geometry">
            <mxPoint x="1320" y="-201" as="sourcePoint" />
            <mxPoint x="1420.08" y="-199.01" as="targetPoint" />
          </mxGeometry>
        </mxCell>
        <mxCell id="K1zx9iukP4_eoGGUbtov-34" value="Check variable in the environment" style="ellipse;shape=umlControl;whiteSpace=wrap;html=1;direction=south;" parent="1" vertex="1">
          <mxGeometry x="1390" y="-235" width="80" height="70" as="geometry" />
        </mxCell>
        <mxCell id="K1zx9iukP4_eoGGUbtov-35" value="checkSubGrid" style="shape=umlBoundary;whiteSpace=wrap;html=1;" parent="1" vertex="1">
          <mxGeometry x="1550" y="-240" width="160" height="80" as="geometry" />
        </mxCell>
        <mxCell id="K1zx9iukP4_eoGGUbtov-36" value="checkRow" style="shape=umlBoundary;whiteSpace=wrap;html=1;" parent="1" vertex="1">
          <mxGeometry x="1780" y="-240" width="160" height="80" as="geometry" />
        </mxCell>
        <mxCell id="K1zx9iukP4_eoGGUbtov-37" value="checkColumn" style="shape=umlBoundary;whiteSpace=wrap;html=1;" parent="1" vertex="1">
          <mxGeometry x="1987" y="-240" width="160" height="80" as="geometry" />
        </mxCell>
        <mxCell id="K1zx9iukP4_eoGGUbtov-38" value="" style="endArrow=classic;html=1;exitX=0.533;exitY=0.094;exitDx=0;exitDy=0;exitPerimeter=0;entryX=0.016;entryY=0.508;entryDx=0;entryDy=0;entryPerimeter=0;" parent="1" source="K1zx9iukP4_eoGGUbtov-34" target="K1zx9iukP4_eoGGUbtov-35" edge="1">
          <mxGeometry width="50" height="50" relative="1" as="geometry">
            <mxPoint x="1520" y="-160.86000000000007" as="sourcePoint" />
            <mxPoint x="1620.8000000000002" y="-159.99999999999994" as="targetPoint" />
          </mxGeometry>
        </mxCell>
        <mxCell id="K1zx9iukP4_eoGGUbtov-39" value="" style="endArrow=classic;html=1;exitX=1;exitY=0.519;exitDx=0;exitDy=0;exitPerimeter=0;entryX=0;entryY=0.519;entryDx=0;entryDy=0;entryPerimeter=0;" parent="1" source="K1zx9iukP4_eoGGUbtov-35" target="K1zx9iukP4_eoGGUbtov-36" edge="1">
          <mxGeometry width="50" height="50" relative="1" as="geometry">
            <mxPoint x="1740" y="-180.16000000000008" as="sourcePoint" />
            <mxPoint x="1840.8000000000002" y="-179.29999999999995" as="targetPoint" />
          </mxGeometry>
        </mxCell>
        <mxCell id="K1zx9iukP4_eoGGUbtov-40" value="" style="endArrow=classic;html=1;exitX=1;exitY=0.5;exitDx=0;exitDy=0;exitPerimeter=0;entryX=0.008;entryY=0.508;entryDx=0;entryDy=0;entryPerimeter=0;" parent="1" source="K1zx9iukP4_eoGGUbtov-36" target="K1zx9iukP4_eoGGUbtov-37" edge="1">
          <mxGeometry width="50" height="50" relative="1" as="geometry">
            <mxPoint x="1970" y="-165.00000000000003" as="sourcePoint" />
            <mxPoint x="2040" y="-165" as="targetPoint" />
          </mxGeometry>
        </mxCell>
        <mxCell id="K1zx9iukP4_eoGGUbtov-41" value="" style="endArrow=classic;html=1;exitX=0.589;exitY=0.998;exitDx=0;exitDy=0;exitPerimeter=0;entryX=0.51;entryY=0.135;entryDx=0;entryDy=0;entryPerimeter=0;" parent="1" source="K1zx9iukP4_eoGGUbtov-35" target="K1zx9iukP4_eoGGUbtov-43" edge="1">
          <mxGeometry width="50" height="50" relative="1" as="geometry">
            <mxPoint x="1710" y="-110" as="sourcePoint" />
            <mxPoint x="1760" y="-160" as="targetPoint" />
            <Array as="points">
              <mxPoint x="1644" y="-104" />
            </Array>
          </mxGeometry>
        </mxCell>
        <mxCell id="K1zx9iukP4_eoGGUbtov-43" value="Incorrect" style="ellipse;shape=umlControl;whiteSpace=wrap;html=1;direction=south;" parent="1" vertex="1">
          <mxGeometry x="1400" y="-140" width="80" height="70" as="geometry" />
        </mxCell>
        <mxCell id="K1zx9iukP4_eoGGUbtov-44" value="" style="endArrow=classic;html=1;exitX=0.533;exitY=1;exitDx=0;exitDy=0;exitPerimeter=0;entryX=0.552;entryY=1.019;entryDx=0;entryDy=0;entryPerimeter=0;" parent="1" source="K1zx9iukP4_eoGGUbtov-43" target="K1zx9iukP4_eoGGUbtov-31" edge="1">
          <mxGeometry width="50" height="50" relative="1" as="geometry">
            <mxPoint x="1241" y="-40" as="sourcePoint" />
            <mxPoint x="1291" y="-90" as="targetPoint" />
            <Array as="points">
              <mxPoint x="1218" y="-103" />
            </Array>
          </mxGeometry>
        </mxCell>
        <mxCell id="K1zx9iukP4_eoGGUbtov-46" value="" style="endArrow=none;html=1;exitX=0.594;exitY=0.998;exitDx=0;exitDy=0;exitPerimeter=0;entryX=0.51;entryY=0.156;entryDx=0;entryDy=0;entryPerimeter=0;" parent="1" source="K1zx9iukP4_eoGGUbtov-36" target="K1zx9iukP4_eoGGUbtov-43" edge="1">
          <mxGeometry width="50" height="50" relative="1" as="geometry">
            <mxPoint x="1880" y="-70" as="sourcePoint" />
            <mxPoint x="1930" y="-120" as="targetPoint" />
            <Array as="points">
              <mxPoint x="1875" y="-104" />
            </Array>
          </mxGeometry>
        </mxCell>
        <mxCell id="K1zx9iukP4_eoGGUbtov-47" value="" style="endArrow=none;html=1;exitX=0.533;exitY=0.125;exitDx=0;exitDy=0;exitPerimeter=0;entryX=0.618;entryY=1.008;entryDx=0;entryDy=0;entryPerimeter=0;" parent="1" source="K1zx9iukP4_eoGGUbtov-43" target="K1zx9iukP4_eoGGUbtov-37" edge="1">
          <mxGeometry width="50" height="50" relative="1" as="geometry">
            <mxPoint x="1987" y="-60" as="sourcePoint" />
            <mxPoint x="2037" y="-110" as="targetPoint" />
            <Array as="points">
              <mxPoint x="2086" y="-103" />
            </Array>
          </mxGeometry>
        </mxCell>
        <mxCell id="K1zx9iukP4_eoGGUbtov-49" value="No variables left" style="ellipse;shape=umlControl;whiteSpace=wrap;html=1;direction=south;" parent="1" vertex="1">
          <mxGeometry x="1380" y="-340" width="80" height="70" as="geometry" />
        </mxCell>
        <mxCell id="K1zx9iukP4_eoGGUbtov-50" value="Backtrack" style="shape=umlBoundary;whiteSpace=wrap;html=1;" parent="1" vertex="1">
          <mxGeometry x="1135" y="-350" width="160" height="80" as="geometry" />
        </mxCell>
        <mxCell id="K1zx9iukP4_eoGGUbtov-51" value="" style="endArrow=classic;html=1;exitX=0.932;exitY=0.227;exitDx=0;exitDy=0;exitPerimeter=0;entryX=0.986;entryY=0.521;entryDx=0;entryDy=0;entryPerimeter=0;" parent="1" source="K1zx9iukP4_eoGGUbtov-31" target="K1zx9iukP4_eoGGUbtov-49" edge="1">
          <mxGeometry width="50" height="50" relative="1" as="geometry">
            <mxPoint x="1350" y="-220" as="sourcePoint" />
            <mxPoint x="1400" y="-270" as="targetPoint" />
            <Array as="points">
              <mxPoint x="1279" y="-250" />
              <mxPoint x="1418" y="-250" />
            </Array>
          </mxGeometry>
        </mxCell>
        <mxCell id="K1zx9iukP4_eoGGUbtov-52" value="" style="endArrow=classic;html=1;exitX=0.521;exitY=1.021;exitDx=0;exitDy=0;exitPerimeter=0;entryX=1.005;entryY=0.571;entryDx=0;entryDy=0;entryPerimeter=0;" parent="1" source="K1zx9iukP4_eoGGUbtov-49" target="K1zx9iukP4_eoGGUbtov-50" edge="1">
          <mxGeometry width="50" height="50" relative="1" as="geometry">
            <mxPoint x="1470" y="-330" as="sourcePoint" />
            <mxPoint x="1520" y="-380" as="targetPoint" />
          </mxGeometry>
        </mxCell>
        <mxCell id="K1zx9iukP4_eoGGUbtov-53" value="" style="endArrow=classic;html=1;exitX=-0.01;exitY=0.498;exitDx=0;exitDy=0;exitPerimeter=0;entryX=0.547;entryY=-0.002;entryDx=0;entryDy=0;entryPerimeter=0;" parent="1" source="K1zx9iukP4_eoGGUbtov-50" target="K1zx9iukP4_eoGGUbtov-31" edge="1">
          <mxGeometry width="50" height="50" relative="1" as="geometry">
            <mxPoint x="1320" y="-340" as="sourcePoint" />
            <mxPoint x="1370" y="-390" as="targetPoint" />
            <Array as="points">
              <mxPoint x="1080" y="-310" />
              <mxPoint x="1080" y="-260" />
              <mxPoint x="1218" y="-260" />
            </Array>
          </mxGeometry>
        </mxCell>
        <mxCell id="K1zx9iukP4_eoGGUbtov-54" value="Variable Correct" style="ellipse;shape=umlControl;whiteSpace=wrap;html=1;direction=south;" parent="1" vertex="1">
          <mxGeometry x="2220" y="-240" width="80" height="70" as="geometry" />
        </mxCell>
        <mxCell id="K1zx9iukP4_eoGGUbtov-55" value="" style="endArrow=classic;html=1;exitX=1.025;exitY=0.5;exitDx=0;exitDy=0;exitPerimeter=0;entryX=0.557;entryY=1;entryDx=0;entryDy=0;entryPerimeter=0;" parent="1" source="K1zx9iukP4_eoGGUbtov-37" target="K1zx9iukP4_eoGGUbtov-54" edge="1">
          <mxGeometry width="50" height="50" relative="1" as="geometry">
            <mxPoint x="2240" y="-60" as="sourcePoint" />
            <mxPoint x="2290" y="-110" as="targetPoint" />
          </mxGeometry>
        </mxCell>
        <mxCell id="K1zx9iukP4_eoGGUbtov-56" value="" style="endArrow=classic;html=1;exitX=0;exitY=0.6;exitDx=0;exitDy=0;exitPerimeter=0;entryX=0.575;entryY=0;entryDx=0;entryDy=0;entryPerimeter=0;" parent="1" source="K1zx9iukP4_eoGGUbtov-54" target="K1zx9iukP4_eoGGUbtov-13" edge="1">
          <mxGeometry width="50" height="50" relative="1" as="geometry">
            <mxPoint x="2250" y="-260" as="sourcePoint" />
            <mxPoint x="2300" y="-310" as="targetPoint" />
            <Array as="points">
              <mxPoint x="2252" y="-380" />
              <mxPoint x="812" y="-380" />
            </Array>
          </mxGeometry>
        </mxCell>
      </root>
    </mxGraphModel>
  </diagram>
</mxfile>
